<svg width="24" height="24" viewBox="0 0 24 24" fill="none" xmlns="http://www.w3.org/2000/svg">
<path d="M18.6655 18.67L20.8855 17.56V14.78M14.2155 9.78L11.9955 10.89L14.2155 9.78ZM11.9955 10.89L9.77547 9.78L11.9955 10.89ZM11.9955 10.89V13.67V10.89ZM20.8855 6.44L18.6655 7.55L20.8855 6.44ZM20.8855 6.44L18.6655 5.33L20.8855 6.44ZM20.8855 6.44V9.22V6.44ZM14.2155 3.11L11.9955 2L9.77547 3.11H14.2155ZM3.10547 6.44L5.32547 5.33L3.10547 6.44ZM3.10547 6.44L5.32547 7.55L3.10547 6.44ZM3.10547 6.44V9.22V6.44ZM11.9955 22L9.77547 20.89L11.9955 22ZM11.9955 22L14.2155 20.89L11.9955 22ZM11.9955 22V19.22V22ZM5.32547 18.67L3.10547 17.56V14.78L5.32547 18.67Z" stroke="#131313" stroke-width="1.5" stroke-linecap="round" stroke-linejoin="round"/>
</svg>
