<svg xmlns="http://www.w3.org/2000/svg" width="24" height="24" viewBox="0 0 24 24" fill="none">
  <path d="M9.03004 13.9999C8.64004 13.4299 8.42004 12.7399 8.42004 11.9999C8.42004 10.0199 10.02 8.41992 12 8.41992C13.98 8.41992 15.58 10.0199 15.58 11.9999C15.58 13.9799 13.98 15.5799 12 15.5799" stroke="#131313" stroke-width="1.5" stroke-linecap="round" stroke-linejoin="round"/>
  <path d="M17.5601 5.58047C15.8701 4.38047 13.9701 3.73047 12.0001 3.73047C8.47009 3.73047 5.18009 5.81047 2.89009 9.41047C1.99009 10.8205 1.99009 13.1905 2.89009 14.6005C5.18009 18.2005 8.47009 20.2805 12.0001 20.2805C15.5301 20.2805 18.8201 18.2005 21.1101 14.6005C22.0101 13.1905 22.0101 10.8205 21.1101 9.41047" stroke="#131313" stroke-width="1.5" stroke-linecap="round" stroke-linejoin="round"/>
</svg>