<?xml version="1.0" encoding="UTF-8" standalone="no"?>
<!-- Created with Inkscape (http://www.inkscape.org/) -->

<svg
   xmlns:osb="http://www.openswatchbook.org/uri/2009/osb"
   xmlns:dc="http://purl.org/dc/elements/1.1/"
   xmlns:cc="http://creativecommons.org/ns#"
   xmlns:rdf="http://www.w3.org/1999/02/22-rdf-syntax-ns#"
   xmlns:svg="http://www.w3.org/2000/svg"
   xmlns="http://www.w3.org/2000/svg"
   xmlns:sodipodi="http://sodipodi.sourceforge.net/DTD/sodipodi-0.dtd"
   xmlns:inkscape="http://www.inkscape.org/namespaces/inkscape"
   width="417.77734mm"
   height="71.332985mm"
   viewBox="0 0 417.77734 71.332985"
   version="1.1"
   id="svg8"
   inkscape:version="0.92.3 (2405546, 2018-03-11)"
   sodipodi:docname="logo-name.svg">
  <defs
     id="defs2">
    <linearGradient
       id="linearGradient6115"
       osb:paint="solid">
      <stop
         style="stop-color:#ff0000;stop-opacity:1;"
         offset="0"
         id="stop6113" />
    </linearGradient>
    <style
       id="style882">
      .cls-1 {
        fill: #1e2a69;
      }

      .cls-2 {
        fill: #fff;
      }

      .cls-3 {
        fill: none;
      }

      .cls-4 {
        clip-path: url(#clippath-1);
      }

      .cls-5 {
        clip-path: url(#clippath);
      }
    </style>
    <clipPath
       id="clippath">
      <path
         id="path884"
         d="m 386.439,54.846 v 169.913 c 0,27.529 -24.488,49.846 -54.695,49.846 H 59.709 C 29.487,274.605 5,252.276 5,224.747 V 54.858 C 5,27.329 29.487,5 59.709,5 h 272.035 c 30.207,0 54.695,22.317 54.695,49.846 z"
         class="cls-3"
         inkscape:connector-curvature="0"
         style="fill:none" />
    </clipPath>
    <clipPath
       id="clippath-1">
      <rect
         id="rect887"
         height="279.60501"
         width="391.439"
         class="cls-3"
         x="0"
         y="0"
         style="fill:none" />
    </clipPath>
    <linearGradient
       y2="-351.67722"
       x2="41.404644"
       y1="-347.38248"
       x1="-186.50253"
       id="grad1"
       gradientTransform="matrix(1.1766967,0,0,0.8498366,248.45698,124.09992)"
       gradientUnits="userSpaceOnUse">
      <stop
         id="stop6121"
         style="stop-color:rgb(13,32,104);stop-opacity:1"
         offset="0%" />
      <stop
         id="stop6123"
         style="stop-color:#315ad6;stop-opacity:1"
         offset="100%" />
    </linearGradient>
  </defs>
  <sodipodi:namedview
     id="base"
     pagecolor="#ffffff"
     bordercolor="#666666"
     borderopacity="1.0"
     inkscape:pageopacity="0.0"
     inkscape:pageshadow="2"
     inkscape:zoom="0.7"
     inkscape:cx="16.472308"
     inkscape:cy="255.96351"
     inkscape:document-units="mm"
     inkscape:current-layer="g920"
     showgrid="false"
     inkscape:window-width="1920"
     inkscape:window-height="1051"
     inkscape:window-x="-9"
     inkscape:window-y="-9"
     inkscape:window-maximized="1"
     fit-margin-top="0"
     fit-margin-left="0"
     fit-margin-right="0"
     fit-margin-bottom="0" />
  <metadata
     id="metadata5">
    <rdf:RDF>
      <cc:Work
         rdf:about="">
        <dc:format>image/svg+xml</dc:format>
        <dc:type
           rdf:resource="http://purl.org/dc/dcmitype/StillImage" />
        <dc:title></dc:title>
      </cc:Work>
    </rdf:RDF>
  </metadata>
  <g
     inkscape:label="Layer 1"
     inkscape:groupmode="layer"
     id="layer1"
     transform="translate(294.50028,-147.56268)">
    <g
       id="g947"
       transform="matrix(0.26458333,0,0,0.26458333,-295.8232,146.23976)">
      <g
         id="g910">
        <path
           id="path892"
           d="m 578.842,74.445 c -8.946,0 -17.258,4.608 -21.992,12.215 L 526.137,135.927 495.945,86.786 C 491.239,79.122 482.871,74.444 473.868,74.444 h -14.145 v 116.301 c 0,8.582 6.957,15.539 15.539,15.539 v 0 c 8.582,0 15.539,-6.957 15.539,-15.539 v -25.514 c 0,-12.173 -0.282,-22.697 -0.845,-31.544 -0.127,-2.1 -0.296,-4.17 -0.465,-6.241 l 26.416,41.561 c 1.043,1.634 2.451,2.959 4.114,3.861 1.648,0.916 3.522,1.409 5.466,1.409 3.86,0 7.453,-1.958 9.552,-5.213 l 27.289,-42.35 c -0.239,2.663 -0.437,5.326 -0.606,8.003 -0.563,9.045 -0.845,19.217 -0.845,30.516 v 25.514 c 0,8.582 6.957,15.539 15.539,15.539 v 0 c 8.582,0 15.539,-6.957 15.539,-15.539 V 74.446 h -13.116 z"
           class="cls-1"
           inkscape:connector-curvature="0"
           style="fill:#1e2a69" />
        <path
           id="path894"
           d="m 703.834,156.948 h -60.651 l -9.989,24.106 h 80.431 l -9.792,-24.106 z M 687.633,74.445 h -27.12 l -52.169,131.84 h 31.643 l 9.411,-25.232 8.989,-24.106 6.466,-17.329 c 1,-3.142 2.071,-6.185 3.198,-9.143 1.127,-2.945 2.17,-5.904 3.1,-8.848 0.845,-2.62 1.676,-5.283 2.522,-7.96 0.803,2.607 1.62,5.269 2.48,7.96 1,3.198 2,6.312 3.015,9.327 1,3.014 2,5.832 3.015,8.467 l 6.509,17.526 8.96,24.106 9.383,25.232 h 32.404 L 687.636,74.445 Z"
           class="cls-1"
           inkscape:connector-curvature="0"
           style="fill:#1e2a69" />
        <path
           id="path896"
           d="m 847.833,149.875 c -2.198,-4.451 -5.34,-8.312 -9.425,-11.58 -4.086,-3.269 -8.918,-6.03 -14.497,-8.284 -5.593,-2.269 -11.835,-4.086 -18.738,-5.467 -3.015,-0.493 -5.917,-1.155 -8.679,-1.972 -2.761,-0.817 -5.199,-1.817 -7.34,-3.014 -2.141,-1.198 -3.832,-2.55 -5.086,-4.058 -1.254,-1.507 -1.888,-3.325 -1.888,-5.452 0,-2.395 0.761,-4.424 2.268,-6.129 1.507,-1.691 3.607,-3.015 6.312,-3.959 2.761,-0.958 6.086,-1.423 9.96,-1.409 2.48,0.014 4.974,0.281 7.396,0.859 4.565,1.085 8.82,3.001 12.778,5.734 3.071,2.141 5.932,4.833 8.566,8.101 l 19.78,-19.019 c -3.142,-4.776 -6.946,-8.862 -11.398,-12.243 -4.452,-3.395 -9.791,-6.001 -16.004,-7.819 -6.213,-1.817 -13.666,-2.733 -22.33,-2.733 -6.523,0 -12.807,0.972 -18.836,2.916 -6.016,1.944 -11.327,4.706 -15.906,8.284 -4.593,3.593 -8.227,7.861 -10.932,12.821 -2.691,4.959 -4.044,10.383 -4.044,16.286 0,5.523 0.874,10.524 2.635,14.976 1.761,4.452 4.424,8.411 8.002,11.863 3.579,3.451 8.073,6.382 13.469,8.763 5.396,2.381 11.735,4.396 19.019,6.03 2.648,0.493 5.213,1.099 7.735,1.789 2.507,0.691 4.889,1.508 7.157,2.438 2.254,0.944 4.198,1.986 5.832,3.114 1.634,1.127 2.916,2.451 3.86,3.958 0.944,1.508 1.423,3.198 1.423,5.086 0,2.507 -0.761,4.607 -2.268,6.312 -1.507,1.69 -3.649,2.972 -6.41,3.86 -2.762,0.874 -5.833,1.31 -9.228,1.31 -6.777,0 -13.342,-1.437 -19.682,-4.325 -6.34,-2.889 -12.651,-8.538 -18.921,-16.949 l -19.4,22.035 c 4.269,5.396 9.101,10.073 14.497,14.032 5.396,3.959 11.581,6.96 18.554,9.045 6.974,2.071 14.779,3.1 23.443,3.1 10.045,0 18.935,-1.663 26.655,-4.987 7.72,-3.325 13.821,-8.157 18.273,-14.512 4.452,-6.34 6.692,-14.089 6.692,-23.26 0,-5.903 -1.099,-11.073 -3.297,-15.54 z"
           class="cls-1"
           inkscape:connector-curvature="0"
           style="fill:#1e2a69" />
        <path
           id="path898"
           d="m 864.683,74.445 v 28.248 h 39.18 v 87.581 c 0,8.843 7.169,16.012 16.012,16.012 v 0 c 8.843,0 16.012,-7.169 16.012,-16.012 v -87.581 h 40.11 V 74.445 H 864.684 Z"
           class="cls-1"
           inkscape:connector-curvature="0"
           style="fill:#1e2a69" />
        <path
           id="path900"
           d="m 1013.669,126.249 v 25.979 h 68.372 v -25.979 z m 16.018,52.733 v -77.233 h 60.834 V 74.445 h -91.913 v 131.84 h 93.801 v -27.303 z"
           class="cls-1"
           inkscape:connector-curvature="0"
           style="fill:#1e2a69" />
        <path
           id="path902"
           d="m 1200.201,155.44 -7.777,-13.384 -32.784,4.72 7.425,13.187 26.106,46.323 h 36.545 l -29.515,-50.845 z m 18.202,-60.566 c -3.888,-6.325 -9.256,-11.327 -16.103,-14.961 -6.833,-3.649 -14.469,-5.467 -22.88,-5.467 h -59.326 v 131.84 h 30.516 v -46.323 h 28.811 c 7.636,0 14.568,-1.507 20.781,-4.522 0.747,-0.352 1.479,-0.733 2.198,-1.127 6.777,-3.776 12.116,-8.961 16.005,-15.54 3.903,-6.593 5.847,-14.046 5.847,-22.33 0,-8.03 -1.944,-15.215 -5.847,-21.57 z m -67.794,6.312 h 23.161 c 4.015,0 7.439,0.69 10.271,2.071 2.818,1.395 4.987,3.367 6.495,5.946 1.508,2.564 2.254,5.551 2.254,8.946 0,3.395 -0.662,6.396 -1.972,9.03 -1.324,2.648 -3.198,4.677 -5.65,6.129 -2.451,1.437 -5.311,2.17 -8.58,2.17 h -25.979 v -34.291 z"
           class="cls-1"
           inkscape:connector-curvature="0"
           style="fill:#1e2a69" />
        <path
           id="path904"
           d="m 1344.326,149.875 c -2.198,-4.451 -5.34,-8.312 -9.425,-11.58 -4.072,-3.269 -8.918,-6.03 -14.497,-8.284 -5.593,-2.269 -11.834,-4.086 -18.738,-5.467 -3.015,-0.493 -5.903,-1.155 -8.664,-1.972 -2.761,-0.817 -5.213,-1.817 -7.354,-3.014 -2.127,-1.198 -3.832,-2.55 -5.086,-4.058 -1.254,-1.507 -1.874,-3.325 -1.874,-5.452 0,-2.395 0.746,-4.424 2.254,-6.129 1.508,-1.691 3.607,-3.015 6.312,-3.959 2.761,-0.958 6.086,-1.423 9.961,-1.409 2.494,0.014 4.973,0.281 7.396,0.859 4.565,1.085 8.834,3.001 12.778,5.734 3.072,2.141 5.932,4.833 8.566,8.101 l 19.78,-19.019 c -3.142,-4.776 -6.931,-8.862 -11.397,-12.243 -4.452,-3.395 -9.792,-6.001 -16.005,-7.819 -6.213,-1.817 -13.652,-2.733 -22.316,-2.733 -6.537,0 -12.82,0.972 -18.836,2.916 -6.03,1.944 -11.341,4.706 -15.92,8.284 -4.579,3.593 -8.228,7.861 -10.919,12.821 -2.705,4.959 -4.057,10.383 -4.057,16.286 0,5.523 0.873,10.524 2.634,14.976 1.761,4.452 4.424,8.411 8.002,11.863 3.593,3.451 8.073,6.382 13.469,8.763 5.41,2.381 11.75,4.396 19.034,6.03 2.634,0.493 5.199,1.099 7.72,1.789 2.508,0.691 4.889,1.508 7.157,2.438 2.254,0.944 4.198,1.986 5.832,3.114 1.634,1.127 2.931,2.451 3.86,3.958 0.944,1.508 1.423,3.198 1.423,5.086 0,2.507 -0.761,4.607 -2.268,6.312 -1.508,1.69 -3.635,2.972 -6.396,3.86 -2.761,0.874 -5.847,1.31 -9.228,1.31 -6.791,0 -13.356,-1.437 -19.682,-4.325 -6.354,-2.889 -12.666,-8.538 -18.935,-16.949 l -19.4,22.035 c 4.269,5.396 9.101,10.073 14.497,14.032 5.396,3.959 11.581,6.96 18.554,9.045 6.974,2.071 14.793,3.1 23.457,3.1 10.045,0 18.921,-1.663 26.642,-4.987 7.735,-3.325 13.821,-8.157 18.273,-14.512 4.452,-6.34 6.692,-14.089 6.692,-23.26 0,-5.903 -1.099,-11.073 -3.297,-15.54 z"
           class="cls-1"
           inkscape:connector-curvature="0"
           style="fill:#1e2a69" />
        <path
           id="path906"
           d="m 1386.803,126.249 v 25.979 h 68.372 v -25.979 z m 16.004,52.733 v -77.233 h 60.834 V 74.445 h -91.913 v 131.84 h 93.801 v -27.303 z"
           class="cls-1"
           inkscape:connector-curvature="0"
           style="fill:#1e2a69" />
        <path
           id="path908"
           d="M 1525.237,178.038 V 74.445 h -32.023 v 131.84 h 76.663 c 7.8,0 14.124,-6.323 14.124,-14.124 v 0 c 0,-7.8 -6.323,-14.124 -14.124,-14.124 h -44.64 z"
           class="cls-1"
           inkscape:connector-curvature="0"
           style="fill:#1e2a69" />
      </g>
      <g
         id="g920">
        <rect
           id="rect6128"
           height="230.70557"
           width="326.50955"
           ry="35.49316"
           rx="36.278839"
           y="27.013124"
           x="34.3466"
           style="opacity:1;fill:url(#grad1);stroke-width:0.89709634" />
        <path
           id="path918"
           style="display:inline;fill:#ffffff"
           d="m 328.375,65.461 v 123.605 c 0,7.876 -3.536,15.019 -9.116,19.781 -4.508,3.86 -10.37,6.171 -16.766,6.044 -13.765,-0.282 -24.853,-11.539 -24.853,-25.361 v -38.492 c -0.226,-0.367 -0.338,-0.564 -0.338,-0.564 l -39.506,39.521 c 0,0 0,-0.014 -0.014,-0.028 l -17.541,17.527 c -9.876,9.863 -25.854,9.863 -35.73,0 L 113.853,136.85 c -0.029,-0.028 -0.056,-0.014 -0.056,0.014 v 51.848 c 0,14.272 -11.596,26.107 -25.882,25.826 C 74.15,214.256 63.061,202.999 63.061,189.177 V 64.825 c 0,-0.014 0.014,-0.028 0.042,-0.028 h 34.618 c 10.145,0 19.866,4.015 27.037,11.187 L 202.404,153.63 233.781,122.281 184.3,73.658 c -3.311,-3.31 -0.973,-8.946 3.705,-8.946 h 139.611 l 0.761,0.746 z"
           inkscape:connector-curvature="0" />
      </g>
    </g>
  </g>
</svg>
