<?xml version="1.0" encoding="UTF-8" standalone="no"?>
<!-- Created with Inkscape (http://www.inkscape.org/) -->

<svg
   xmlns:osb="http://www.openswatchbook.org/uri/2009/osb"
   xmlns:dc="http://purl.org/dc/elements/1.1/"
   xmlns:cc="http://creativecommons.org/ns#"
   xmlns:rdf="http://www.w3.org/1999/02/22-rdf-syntax-ns#"
   xmlns:svg="http://www.w3.org/2000/svg"
   xmlns="http://www.w3.org/2000/svg"
   xmlns:sodipodi="http://sodipodi.sourceforge.net/DTD/sodipodi-0.dtd"
   xmlns:inkscape="http://www.inkscape.org/namespaces/inkscape"
   width="86.388985mm"
   height="61.040848mm"
   viewBox="0 0 86.388984 61.040848"
   version="1.1"
   id="svg8"
   inkscape:version="0.92.3 (2405546, 2018-03-11)"
   sodipodi:docname="logo.svg">
  <defs
     id="defs2">
    <linearGradient
       id="linearGradient6115"
       osb:paint="solid">
      <stop
         style="stop-color:#ff0000;stop-opacity:1;"
         offset="0"
         id="stop6113" />
    </linearGradient>
    <style
       id="style882">
      .cls-1 {
        fill: #1e2a69;
      }

      .cls-2 {
        fill: #fff;
      }

      .cls-3 {
        fill: none;
      }

      .cls-4 {
        clip-path: url(#clippath-1);
      }

      .cls-5 {
        clip-path: url(#clippath);
      }
    </style>
    <clipPath
       id="clippath">
      <path
         id="path884"
         d="m 386.439,54.846 v 169.913 c 0,27.529 -24.488,49.846 -54.695,49.846 H 59.709 C 29.487,274.605 5,252.276 5,224.747 V 54.858 C 5,27.329 29.487,5 59.709,5 h 272.035 c 30.207,0 54.695,22.317 54.695,49.846 z"
         class="cls-3"
         inkscape:connector-curvature="0"
         style="fill:none" />
    </clipPath>
    <clipPath
       id="clippath-1">
      <rect
         id="rect887"
         height="279.60501"
         width="391.439"
         class="cls-3"
         x="0"
         y="0"
         style="fill:none" />
    </clipPath>
    <linearGradient
       y2="-351.67722"
       x2="41.404644"
       y1="-347.38248"
       x1="-186.50253"
       id="grad1"
       gradientTransform="matrix(1.1766967,0,0,0.8498366,277.80357,146.11303)"
       gradientUnits="userSpaceOnUse">
      <stop
         id="stop6121"
         style="stop-color:rgb(13,32,104);stop-opacity:1"
         offset="0%" />
      <stop
         id="stop6123"
         style="stop-color:#315ad6;stop-opacity:1"
         offset="100%" />
    </linearGradient>
  </defs>
  <sodipodi:namedview
     id="base"
     pagecolor="#ffffff"
     bordercolor="#666666"
     borderopacity="1.0"
     inkscape:pageopacity="0.0"
     inkscape:pageshadow="2"
     inkscape:zoom="0.49497475"
     inkscape:cx="520.45733"
     inkscape:cy="231.58943"
     inkscape:document-units="mm"
     inkscape:current-layer="g947"
     showgrid="false"
     inkscape:window-width="1920"
     inkscape:window-height="1051"
     inkscape:window-x="-9"
     inkscape:window-y="-9"
     inkscape:window-maximized="1"
     fit-margin-top="0"
     fit-margin-left="0"
     fit-margin-right="0"
     fit-margin-bottom="0" />
  <metadata
     id="metadata5">
    <rdf:RDF>
      <cc:Work
         rdf:about="">
        <dc:format>image/svg+xml</dc:format>
        <dc:type
           rdf:resource="http://purl.org/dc/dcmitype/StillImage" />
        <dc:title></dc:title>
      </cc:Work>
    </rdf:RDF>
  </metadata>
  <g
     inkscape:label="Layer 1"
     inkscape:groupmode="layer"
     id="layer1"
     transform="translate(286.73566,-153.38698)">
    <g
       id="g947"
       transform="matrix(0.26458333,0,0,0.26458333,-295.8232,146.23976)">
      <g
         id="g920">
        <rect
           id="rect6128"
           height="230.70557"
           width="326.50955"
           ry="35.49316"
           rx="36.278839"
           y="27.013124"
           x="34.3466"
           style="opacity:1;fill:url(#grad1);stroke-width:0.89709634" />
        <path
           id="path918"
           style="display:inline;fill:#ffffff"
           d="m 328.375,65.461 v 123.605 c 0,7.876 -3.536,15.019 -9.116,19.781 -4.508,3.86 -10.37,6.171 -16.766,6.044 -13.765,-0.282 -24.853,-11.539 -24.853,-25.361 v -38.492 c -0.226,-0.367 -0.338,-0.564 -0.338,-0.564 l -39.506,39.521 c 0,0 0,-0.014 -0.014,-0.028 l -17.541,17.527 c -9.876,9.863 -25.854,9.863 -35.73,0 L 113.853,136.85 c -0.029,-0.028 -0.056,-0.014 -0.056,0.014 v 51.848 c 0,14.272 -11.596,26.107 -25.882,25.826 C 74.15,214.256 63.061,202.999 63.061,189.177 V 64.825 c 0,-0.014 0.014,-0.028 0.042,-0.028 h 34.618 c 10.145,0 19.866,4.015 27.037,11.187 L 202.404,153.63 233.781,122.281 184.3,73.658 c -3.311,-3.31 -0.973,-8.946 3.705,-8.946 h 139.611 l 0.761,0.746 z"
           inkscape:connector-curvature="0" />
      </g>
    </g>
  </g>
</svg>
