<svg width="38" height="39" viewBox="0 0 38 39" fill="none" xmlns="http://www.w3.org/2000/svg">
<g clip-path="url(#clip0_1385_63573)">
<path d="M23.1879 15.4824L23.6058 16.6249L24.3679 17.2497L23.6058 17.8745L23.1879 19.0145L22.7699 17.8745L22.0078 17.2497L22.7699 16.6249L23.1879 15.4824Z" fill="url(#paint0_linear_1385_63573)"/>
<path d="M21.3335 19.0146L22.4054 21.2997L24.3623 22.5492L22.4054 23.7988L21.3335 26.0813L20.2616 23.7988L18.3047 22.5492L20.2616 21.2997L21.3335 19.0146Z" fill="url(#paint1_linear_1385_63573)"/>
<path d="M22.5479 21.3893L22.4078 21.2997L21.3359 19.0146L20.2641 21.2997L18.3047 22.5492L19.0201 23.0048C19.2241 23.0421 19.4307 23.0645 19.6445 23.0645C20.8787 23.0645 21.9579 22.3899 22.5455 21.3868L22.5479 21.3893Z" fill="url(#paint2_linear_1385_63573)"/>
<path d="M17.1868 15.3979L18.0226 17.683L19.5493 18.9325L18.0226 20.1821L17.1868 22.4646L16.3534 20.1821L14.8242 18.9325L16.3534 17.683L17.1868 15.3979Z" fill="url(#paint3_linear_1385_63573)"/>
<path d="M18.202 17.8274L18.025 17.683L17.1892 15.3979L16.3533 17.683L14.9766 18.8106C15.2912 18.9425 15.6354 19.0172 15.9968 19.0172C16.9138 19.0172 17.7226 18.5467 18.202 17.8298V17.8274Z" fill="url(#paint4_linear_1385_63573)"/>
<path d="M32.9086 33.3895C33.0536 33.6209 33.0217 33.9221 32.8299 34.1188C31.9867 34.9875 30.9123 35.7691 29.6094 36.4685C28.1368 37.2601 26.5044 37.8799 24.7146 38.3279C22.9249 38.776 21.1229 39 19.3134 39C16.5108 39 13.9319 38.5246 11.5718 37.5712C9.21175 36.6204 7.16387 35.2737 5.42822 33.5313C3.69011 31.7914 2.35026 29.7254 1.41114 27.3358C0.472019 24.9488 0 22.3202 0 19.4452C0 16.5703 0.496604 14.0587 1.48981 11.689C2.48302 9.31689 3.85728 7.26334 5.6126 5.52093C7.37038 3.78102 9.4453 2.42443 11.8374 1.45366C14.2343 0.485384 16.8501 0 19.6896 0C21.4621 0 23.2002 0.23398 24.9039 0.70194C26.6052 1.1699 28.1933 1.85939 29.6659 2.7754C31.1385 3.69141 32.4046 4.77668 33.4691 6.0337L27.9352 12.4433C27.1903 11.6542 26.4011 10.9622 25.5677 10.3698C24.7343 9.77738 23.8198 9.31938 22.8265 8.99579C21.8358 8.6722 20.7688 8.51289 19.6355 8.51289C18.217 8.51289 16.8771 8.77425 15.6184 9.29449C14.3597 9.81472 13.2583 10.5515 12.3192 11.5024C11.3801 12.4532 10.645 13.6132 10.1115 14.9772C9.58051 16.3438 9.315 17.8696 9.315 19.5548C9.315 21.2399 9.58051 22.7085 10.1115 24.0527C10.645 25.3993 11.3899 26.5592 12.3462 27.5275C13.305 28.4983 14.4654 29.2351 15.8298 29.7354C17.1943 30.2382 18.7111 30.4896 20.378 30.4896C21.5137 30.4896 22.5955 30.3278 23.6255 30.0042C24.3532 29.7752 25.0441 29.489 25.6955 29.138C25.875 29.0409 26.0987 29.0907 26.2143 29.2575C26.3421 29.4392 26.5929 29.484 26.7723 29.3545L28.9628 27.7789C29.1324 27.6569 29.3684 27.7042 29.4791 27.881C29.5823 28.0453 29.5381 28.2618 29.3832 28.3763L28.6506 28.904C28.3064 29.1529 28.2253 29.6358 28.4711 29.9843C28.717 30.3328 29.1939 30.4149 29.5381 30.166L30.1625 29.7155C30.3371 29.591 30.578 29.6383 30.6911 29.82C30.7992 29.9943 30.7501 30.2233 30.5804 30.3353L27.0329 32.6701C26.6789 32.9041 26.5781 33.382 26.8092 33.7404C27.0403 34.0989 27.5123 34.2009 27.8663 33.9694L31.3204 31.6993C31.5319 31.5599 31.8146 31.6222 31.9498 31.8387C32.0776 32.0453 32.0235 32.3141 31.8293 32.456L29.5528 34.0939C29.3807 34.2183 29.3414 34.4598 29.4619 34.634C29.5848 34.8083 29.8232 34.8506 29.9953 34.7261L32.085 33.2227C32.3579 33.026 32.7365 33.1032 32.9135 33.3895H32.9086Z" fill="url(#paint5_linear_1385_63573)"/>
<path d="M32.4527 28.9814L31.6341 29.5688C31.4693 29.6883 31.2383 29.6485 31.1227 29.4792C31.0047 29.3125 31.044 29.0785 31.2112 28.9615L32.0299 28.374C32.1946 28.2546 32.4257 28.2944 32.5412 28.4637C32.6592 28.6304 32.6199 28.8644 32.4527 28.9814Z" fill="url(#paint6_linear_1385_63573)"/>
<path d="M37.1274 30.8304L35.9301 31.6867C35.7507 31.8136 35.5048 31.7713 35.377 31.5921C35.2516 31.4104 35.2934 31.1615 35.4704 31.032L36.6677 30.1758C36.8471 30.0488 37.093 30.0911 37.2208 30.2703C37.3462 30.452 37.3044 30.701 37.1274 30.8304Z" fill="url(#paint7_linear_1385_63573)"/>
<path d="M34.1622 24.894L30.5286 27.4976C30.3639 27.6171 30.1328 27.5773 30.0172 27.408C29.8992 27.2413 29.9386 27.0073 30.1057 26.8903L33.7393 24.2866C33.904 24.1672 34.1351 24.207 34.2507 24.3763C34.3687 24.543 34.3293 24.777 34.1622 24.894Z" fill="url(#paint8_linear_1385_63573)"/>
<path d="M36.6307 28.8021L33.7494 30.8656C33.5896 30.9801 33.3659 30.9428 33.2528 30.7785C33.1398 30.6167 33.1766 30.3902 33.3389 30.2757L36.2202 28.2122C36.38 28.0977 36.6037 28.135 36.7168 28.2993C36.8299 28.4611 36.793 28.6876 36.6307 28.8021Z" fill="url(#paint9_linear_1385_63573)"/>
<path d="M31.9398 31.8414C31.9865 31.9186 32.0087 32.0032 32.0087 32.0854C32.0087 32.2297 31.9423 32.3716 31.8194 32.4587L29.5453 34.0941C29.3732 34.2186 29.3339 34.46 29.4543 34.6343C29.5035 34.7064 29.5748 34.7537 29.6535 34.7786C27.141 36.2547 24.2203 37.0985 21.108 37.0985C11.6823 37.0985 4.03906 29.3597 4.03906 19.8139C4.03906 10.268 11.6799 2.53418 21.1055 2.53418C25.5331 2.53418 29.5674 4.23925 32.5987 7.03705L27.9326 12.4435C27.1877 11.6544 26.3985 10.9624 25.5651 10.37C24.7317 9.77761 23.8172 9.3196 22.8239 8.99601C21.8332 8.67242 20.7662 8.51312 19.6329 8.51312C18.2144 8.51312 16.8745 8.77448 15.6158 9.29471C14.3571 9.81494 13.2557 10.5517 12.3166 11.5026C11.3775 12.4534 10.6424 13.6134 10.1089 14.9774C9.57791 16.344 9.3124 17.8698 9.3124 19.555C9.3124 21.2401 9.57791 22.7087 10.1089 24.0529C10.6424 25.3995 11.3873 26.5595 12.3436 27.5277C13.3024 28.4985 14.4628 29.2353 15.8272 29.7356C17.1917 30.2384 18.7085 30.4898 20.3753 30.4898C21.5111 30.4898 22.5929 30.328 23.6229 30.0044C24.3506 29.7754 25.0439 29.4892 25.6905 29.1382C25.8699 29.0411 26.0937 29.0909 26.2092 29.2577C26.2879 29.3697 26.4108 29.4294 26.5362 29.4294C26.6173 29.4294 26.6984 29.4046 26.7673 29.3548L28.9577 27.7816C29.1274 27.6597 29.3634 27.7045 29.474 27.8837C29.5109 27.9434 29.5306 28.0131 29.5306 28.0778C29.5306 28.1923 29.4765 28.3068 29.3781 28.3765L28.6455 28.9042C28.3013 29.1507 28.2202 29.636 28.4636 29.982C28.6136 30.1961 28.8496 30.3081 29.088 30.3081C29.2405 30.3081 29.3953 30.2608 29.5306 30.1637L30.155 29.7132C30.3271 29.5888 30.5705 29.636 30.6836 29.8202C30.7229 29.8825 30.7401 29.9497 30.7401 30.0219C30.7401 30.1438 30.6811 30.2658 30.5705 30.338L27.023 32.6703C26.6689 32.9043 26.5681 33.3822 26.7992 33.7407C26.9467 33.9697 27.1926 34.0941 27.4409 34.0941C27.5835 34.0941 27.7285 34.0543 27.8564 33.9697L31.3105 31.6995C31.5219 31.5602 31.8046 31.6224 31.9398 31.8389V31.8414Z" fill="url(#paint10_linear_1385_63573)"/>
<path d="M29.1259 13.3443L34.5049 7.14387C34.5049 7.14387 34.5098 7.12894 34.5049 7.12147L33.9714 6.33987C33.9714 6.33987 33.9493 6.32992 33.9419 6.33987L28.2629 12.8863C28.2629 12.8863 28.258 12.9087 28.2679 12.9162L29.1013 13.3493C29.1013 13.3493 29.1185 13.3493 29.1234 13.3443H29.1259Z" fill="url(#paint11_linear_1385_63573)"/>
<path d="M35.5676 14.5539C36.1846 15.1662 36.9812 15.557 37.8392 15.6665L38.0014 15.6865C37.8416 14.651 37.2885 13.72 36.46 13.0953L34.122 11.3255C34.0212 11.2508 33.9745 11.1214 34.0016 10.9994L34.7588 7.54943C34.7588 7.54943 34.7538 7.54196 34.7514 7.54445L29.5469 13.5433C29.5469 13.5433 29.5469 13.5533 29.5518 13.5508L32.9715 12.234C33.087 12.1892 33.2173 12.2166 33.3058 12.3037L35.5676 14.5489V14.5539ZM36.4305 14.7829C36.2633 14.6336 36.2461 14.3747 36.3936 14.2054C36.5411 14.0362 36.7968 14.0187 36.964 14.1681C37.1311 14.3174 37.1483 14.5763 37.0008 14.7456C36.8533 14.9148 36.5977 14.9323 36.4305 14.7829Z" fill="url(#paint12_linear_1385_63573)"/>
<path d="M32.8924 7.54688L33.4677 8.33594L29.099 13.3491L28.2656 12.9135L32.8924 7.54688Z" fill="url(#paint13_linear_1385_63573)"/>
<path d="M33.5964 8.88379L34.1249 10.4495L34.0045 11.0021C34.0045 11.0021 33.9528 11.1987 34.1249 11.3281L34.9067 13.8969L33.3087 12.3089C33.3087 12.3089 33.1637 12.1645 32.9744 12.2392C32.7826 12.3138 29.5547 13.5559 29.5547 13.5559L33.5964 8.88379Z" fill="url(#paint14_linear_1385_63573)"/>
</g>
<defs>
<linearGradient id="paint0_linear_1385_63573" x1="22.3889" y1="16.259" x2="26.0393" y2="20.6727" gradientUnits="userSpaceOnUse">
<stop stop-color="#FF5378"/>
<stop offset="0.74" stop-color="#240097"/>
</linearGradient>
<linearGradient id="paint1_linear_1385_63573" x1="19.0152" y1="19.958" x2="24.1961" y2="25.6066" gradientUnits="userSpaceOnUse">
<stop offset="0.17" stop-color="#FF5378"/>
<stop offset="0.26" stop-color="#F95078"/>
<stop offset="0.37" stop-color="#E84A7B"/>
<stop offset="0.5" stop-color="#CC3F7F"/>
<stop offset="0.64" stop-color="#A63184"/>
<stop offset="0.79" stop-color="#741E8B"/>
<stop offset="0.95" stop-color="#390893"/>
<stop offset="1" stop-color="#240097"/>
</linearGradient>
<linearGradient id="paint2_linear_1385_63573" x1="15.3029" y1="11.4576" x2="28.8983" y2="38.6619" gradientUnits="userSpaceOnUse">
<stop stop-color="white" stop-opacity="0"/>
<stop offset="1" stop-color="white" stop-opacity="0.4"/>
</linearGradient>
<linearGradient id="paint3_linear_1385_63573" x1="15.6404" y1="17.0159" x2="23.4277" y2="26.4272" gradientUnits="userSpaceOnUse">
<stop stop-color="#FF5378"/>
<stop offset="0.76" stop-color="#240097"/>
</linearGradient>
<linearGradient id="paint4_linear_1385_63573" x1="13.9932" y1="12.3313" x2="20.4712" y2="26.7561" gradientUnits="userSpaceOnUse">
<stop offset="0.3" stop-color="white" stop-opacity="0"/>
<stop offset="0.42" stop-color="white" stop-opacity="0.02"/>
<stop offset="0.57" stop-color="white" stop-opacity="0.09"/>
<stop offset="0.74" stop-color="white" stop-opacity="0.19"/>
<stop offset="0.93" stop-color="white" stop-opacity="0.33"/>
<stop offset="1" stop-color="white" stop-opacity="0.4"/>
</linearGradient>
<linearGradient id="paint5_linear_1385_63573" x1="-2.52235" y1="0.604864" x2="59.8329" y2="53.4509" gradientUnits="userSpaceOnUse">
<stop stop-color="#FF5378"/>
<stop offset="1" stop-color="#240097"/>
</linearGradient>
<linearGradient id="paint6_linear_1385_63573" x1="24.6669" y1="30.2086" x2="45.3616" y2="26.7218" gradientUnits="userSpaceOnUse">
<stop stop-color="#FF5378"/>
<stop offset="1" stop-color="#240097"/>
</linearGradient>
<linearGradient id="paint7_linear_1385_63573" x1="25.118" y1="32.864" x2="45.8126" y2="29.3773" gradientUnits="userSpaceOnUse">
<stop stop-color="#FF5378"/>
<stop offset="1" stop-color="#240097"/>
</linearGradient>
<linearGradient id="paint8_linear_1385_63573" x1="24.1711" y1="27.2662" x2="44.8658" y2="23.7794" gradientUnits="userSpaceOnUse">
<stop stop-color="#FF5378"/>
<stop offset="1" stop-color="#240097"/>
</linearGradient>
<linearGradient id="paint9_linear_1385_63573" x1="24.8499" y1="31.2912" x2="45.5446" y2="27.8021" gradientUnits="userSpaceOnUse">
<stop stop-color="#FF5378"/>
<stop offset="1" stop-color="#240097"/>
</linearGradient>
<linearGradient id="paint10_linear_1385_63573" x1="20.7564" y1="0.244162" x2="12.8351" y2="71.6142" gradientUnits="userSpaceOnUse">
<stop stop-color="white" stop-opacity="0"/>
<stop offset="1" stop-color="white" stop-opacity="0.4"/>
</linearGradient>
<linearGradient id="paint11_linear_1385_63573" x1="28.821" y1="7.68402" x2="36.542" y2="14.0465" gradientUnits="userSpaceOnUse">
<stop offset="0.2" stop-color="#240097"/>
<stop offset="0.21" stop-color="#280196"/>
<stop offset="0.29" stop-color="#5A148F"/>
<stop offset="0.38" stop-color="#862589"/>
<stop offset="0.46" stop-color="#AB3383"/>
<stop offset="0.55" stop-color="#CA3E7F"/>
<stop offset="0.65" stop-color="#E1477C"/>
<stop offset="0.75" stop-color="#F24E79"/>
<stop offset="0.86" stop-color="#FB5178"/>
<stop offset="1" stop-color="#FF5378"/>
</linearGradient>
<linearGradient id="paint12_linear_1385_63573" x1="26.4812" y1="4.12685" x2="35.9922" y2="14.6332" gradientUnits="userSpaceOnUse">
<stop stop-color="#240097"/>
<stop offset="1" stop-color="#FF5378"/>
</linearGradient>
<linearGradient id="paint13_linear_1385_63573" x1="28.0468" y1="4.18652" x2="36.0107" y2="21.9181" gradientUnits="userSpaceOnUse">
<stop stop-color="white" stop-opacity="0"/>
<stop offset="1" stop-color="white" stop-opacity="0.4"/>
</linearGradient>
<linearGradient id="paint14_linear_1385_63573" x1="28.2837" y1="3.70387" x2="39.1665" y2="27.9351" gradientUnits="userSpaceOnUse">
<stop stop-color="white" stop-opacity="0"/>
<stop offset="1" stop-color="white" stop-opacity="0.4"/>
</linearGradient>
<clipPath id="clip0_1385_63573">
<rect width="38" height="39" fill="white"/>
</clipPath>
</defs>
</svg>
